<?xml version="1.0" standalone="no"?>
<!DOCTYPE svg PUBLIC "-//W3C//DTD SVG 20010904//EN"
 "http://www.w3.org/TR/2001/REC-SVG-20010904/DTD/svg10.dtd">
<svg version="1.0" xmlns="http://www.w3.org/2000/svg"
 width="512.000000pt" height="512.000000pt" viewBox="0 0 512.000000 512.000000"
 preserveAspectRatio="xMidYMid meet">

<g transform="translate(0.000000,512.000000) scale(0.100000,-0.100000)"
fill="#4D4C4C" stroke="none">
<path d="M461 4559 c-185 -50 -349 -177 -424 -329 l-32 -65 0 -1040 0 -1040
30 -53 c61 -111 199 -206 365 -251 41 -12 87 -21 102 -21 17 0 28 -5 28 -14 0
-7 -36 -150 -80 -317 -44 -167 -79 -307 -77 -311 1 -3 246 137 544 313 l543
319 1195 0 c1339 0 1280 -3 1432 72 93 45 181 129 217 208 21 45 21 54 24
1070 3 1147 6 1094 -68 1208 -73 112 -180 197 -308 245 l-57 22 -1680 2
c-1647 2 -1681 2 -1754 -18z m719 -1051 c76 -23 150 -94 181 -173 20 -53 15
-154 -11 -213 -43 -99 -154 -172 -260 -172 -176 0 -316 171 -280 343 35 171
199 266 370 215z m1112 -13 c95 -48 158 -153 158 -264 0 -72 -44 -166 -98
-211 -47 -39 -130 -70 -187 -70 -57 0 -140 31 -187 70 -54 45 -98 139 -98 211
0 145 102 268 239 288 56 8 128 -2 173 -24z m1039 14 c87 -22 168 -115 190
-217 38 -184 -121 -358 -308 -339 -237 25 -343 317 -176 484 80 80 171 102
294 72z"/>
<path d="M4620 2713 c0 -864 -1 -877 -55 -983 -54 -106 -156 -184 -273 -209
-37 -8 -464 -11 -1444 -11 l-1390 0 3 -77 c3 -60 10 -91 32 -135 54 -111 163
-206 293 -256 l69 -27 1100 -5 1100 -5 388 -228 c214 -126 391 -226 394 -223
4 4 -78 356 -103 437 -4 13 7 17 55 22 164 17 281 133 320 315 17 83 15 1861
-3 1927 -48 179 -165 255 -396 255 l-90 0 0 -797z"/>
</g>
</svg>
