<?xml version="1.0" standalone="no"?>
<!DOCTYPE svg PUBLIC "-//W3C//DTD SVG 20010904//EN"
 "http://www.w3.org/TR/2001/REC-SVG-20010904/DTD/svg10.dtd">
<svg version="1.0" xmlns="http://www.w3.org/2000/svg"
 width="512.000000pt" height="512.000000pt" viewBox="0 0 512.000000 512.000000"
 preserveAspectRatio="xMidYMid meet">

<g transform="translate(0.000000,512.000000) scale(0.100000,-0.100000)"
fill="#4D4C4C" stroke="none">
<path d="M2487 4590 c-27 -5 -72 -20 -100 -34 -31 -16 -520 -416 -1212 -994
-1222 -1019 -1188 -988 -1172 -1054 4 -13 58 -85 122 -160 96 -114 121 -138
149 -144 19 -3 44 -3 55 1 11 3 517 420 1123 925 607 506 1105 920 1108 920 3
0 501 -414 1108 -920 606 -505 1112 -922 1123 -925 11 -4 36 -4 55 -1 28 6 53
30 149 144 64 75 118 147 122 160 15 62 3 74 -367 382 l-355 296 -5 672 -5
672 -28 27 -27 28 -323 3 c-210 2 -335 0 -358 -7 -68 -20 -68 -22 -71 -386
l-3 -327 -408 340 c-437 365 -450 374 -572 385 -33 3 -82 2 -108 -3z"/>
<path d="M1642 3018 l-912 -752 0 -780 c0 -537 4 -794 11 -821 15 -55 83 -119
142 -133 32 -9 228 -12 656 -12 l611 0 0 610 0 610 410 0 410 0 0 -610 0 -610
611 0 c407 0 625 4 653 11 56 14 114 62 137 113 18 39 19 84 19 832 l0 790
-909 749 c-499 412 -912 750 -917 752 -5 2 -420 -335 -922 -749z"/>
</g>
</svg>
