<?xml version="1.0" standalone="no"?>
<!DOCTYPE svg PUBLIC "-//W3C//DTD SVG 20010904//EN"
 "http://www.w3.org/TR/2001/REC-SVG-20010904/DTD/svg10.dtd">
<svg version="1.0" xmlns="http://www.w3.org/2000/svg"
 width="512.000000pt" height="512.000000pt" viewBox="0 0 512.000000 512.000000"
 preserveAspectRatio="xMidYMid meet">

<g transform="translate(0.000000,512.000000) scale(0.100000,-0.100000)"
fill="#4D4C4C" stroke="none">
<path d="M857 5109 c-93 -22 -182 -96 -226 -189 -22 -46 -26 -69 -26 -145 0
-84 2 -95 34 -153 38 -70 93 -121 164 -152 l47 -21 0 -220 c0 -167 -3 -220
-12 -223 -7 -2 -51 -11 -97 -20 -164 -32 -310 -109 -443 -235 -335 -317 -392
-802 -141 -1194 49 -76 188 -221 241 -250 l32 -18 0 163 c0 150 2 167 24 213
29 61 65 97 131 127 49 22 58 23 355 23 l305 0 57 -28 c57 -28 106 -78 130
-133 7 -17 14 -97 18 -198 l5 -169 65 52 c161 128 269 298 332 522 l13 47 192
-150 192 -150 -15 -40 c-39 -112 4 -261 100 -346 158 -138 402 -105 513 71
142 225 -20 519 -287 519 -63 0 -172 -31 -185 -53 -4 -5 -12 -9 -19 -9 -7 0
-118 82 -247 183 l-234 183 -8 70 c-16 145 -78 309 -163 426 -19 27 -34 53
-32 58 4 10 379 330 387 330 4 0 14 -29 23 -65 22 -81 74 -195 125 -272 47
-71 155 -187 216 -230 l44 -32 5 162 c4 115 9 172 20 198 24 56 83 114 141
140 49 22 66 23 309 27 302 5 375 -4 440 -51 84 -60 108 -110 117 -238 5 -86
9 -101 32 -126 24 -26 354 -632 347 -637 -2 -1 -30 -10 -63 -20 -300 -91 -541
-344 -628 -660 -31 -113 -31 -355 0 -464 l21 -73 -162 -121 c-88 -67 -166
-125 -172 -130 -7 -5 -25 13 -52 54 -77 121 -219 246 -352 313 -245 122 -540
132 -790 26 -167 -72 -340 -223 -434 -379 -55 -92 -113 -251 -124 -338 l-7
-59 -221 -3 -220 -2 -23 55 c-43 104 -160 190 -274 202 -212 22 -398 -165
-373 -375 14 -117 89 -220 196 -271 46 -22 69 -26 145 -26 84 0 95 2 153 34
70 38 121 93 152 164 l21 47 224 0 225 0 0 -22 c1 -44 28 -155 60 -235 39
-102 113 -217 194 -301 56 -59 145 -132 160 -132 3 0 6 73 6 163 0 155 1 166
26 215 14 28 43 65 64 82 72 57 93 60 424 60 281 0 304 -2 346 -21 55 -25 105
-71 133 -124 19 -35 22 -59 25 -207 2 -93 6 -168 9 -168 3 0 36 24 73 54 142
115 254 284 305 458 l16 57 157 -76 c86 -41 212 -102 280 -134 121 -58 122
-59 115 -86 -4 -15 -8 -62 -8 -103 1 -89 30 -162 89 -222 170 -173 451 -126
555 92 22 46 26 69 26 140 0 71 -4 94 -26 141 -88 188 -327 257 -493 144 l-35
-24 -315 152 -315 151 -6 75 c-3 42 -13 110 -22 151 -26 122 -37 104 149 244
l167 126 40 -59 c54 -78 132 -163 201 -216 l58 -44 4 162 c5 188 16 226 90
293 73 67 85 69 428 69 288 0 307 -1 350 -21 58 -27 108 -76 134 -134 18 -38
21 -69 24 -208 l4 -162 31 22 c54 37 157 140 204 203 81 108 147 260 174 403
19 102 7 309 -26 417 -113 380 -445 646 -837 672 l-98 6 -179 334 -180 335 45
61 c87 118 155 293 171 440 3 31 7 57 9 57 1 0 122 -58 268 -129 l265 -129 -9
-34 c-29 -100 2 -224 77 -308 166 -185 455 -140 562 89 21 46 26 70 26 136 0
71 -4 89 -33 148 -87 177 -297 242 -473 145 l-56 -31 -319 154 -319 155 -22
85 c-97 381 -415 657 -807 701 -133 15 -271 0 -400 -43 -337 -112 -581 -408
-628 -759 l-12 -90 -230 -198 c-126 -108 -239 -205 -251 -214 -20 -16 -24 -15
-86 29 -126 88 -266 144 -404 162 l-50 6 -3 221 -2 220 55 23 c105 43 190 159
202 274 24 231 -193 420 -420 366z m2279 -369 c73 -36 127 -91 162 -169 31
-67 34 -179 8 -250 -65 -176 -265 -266 -443 -199 -80 29 -162 112 -192 193
-31 81 -26 197 10 269 26 54 95 128 140 151 99 52 215 53 315 5z m-2113 -1085
c307 -80 346 -500 58 -633 -72 -34 -178 -41 -248 -18 -182 62 -281 273 -210
447 43 104 128 180 229 205 71 17 104 17 171 -1z m3210 -1128 c225 -103 271
-389 90 -558 -172 -161 -460 -93 -543 129 -30 78 -25 195 10 267 43 88 132
161 227 185 61 15 155 5 216 -23z m-2055 -1019 c68 -25 145 -100 180 -175 38
-84 38 -193 -1 -278 -102 -219 -389 -266 -555 -91 -122 128 -124 324 -5 456
97 108 237 141 381 88z"/>
<path d="M2939 4600 c-44 -13 -74 -38 -98 -81 -19 -33 -22 -51 -19 -95 8 -90
62 -144 152 -152 189 -15 255 241 82 319 -43 20 -75 22 -117 9z"/>
<path d="M886 3490 c-16 -5 -42 -22 -59 -37 -58 -55 -73 -133 -37 -203 27 -54
72 -83 136 -88 44 -4 61 0 98 22 77 45 107 142 67 216 -40 75 -129 114 -205
90z"/>
<path d="M4024 2371 c-59 -27 -87 -72 -92 -146 -3 -50 0 -65 20 -94 33 -49 69
-72 121 -78 60 -7 110 11 146 52 77 88 54 210 -49 263 -53 27 -92 28 -146 3z"/>
<path d="M1961 1338 c-59 -40 -76 -72 -76 -143 0 -68 15 -99 66 -138 54 -40
143 -40 198 0 33 24 71 98 71 138 -1 45 -34 109 -71 136 -50 35 -142 39 -188
7z"/>
<path d="M2675 3725 c-25 -24 -25 -25 -25 -223 l0 -200 80 -21 c194 -53 405
-46 573 18 l28 11 -3 194 c-3 190 -4 195 -27 220 l-24 26 -289 0 -289 0 -24
-25z"/>
<path d="M663 2639 c-60 -18 -64 -34 -61 -250 l3 -193 71 -22 c156 -49 350
-50 519 -2 l80 23 3 185 c1 113 -2 195 -8 210 -22 53 -34 55 -315 57 -145 1
-274 -2 -292 -8z"/>
<path d="M3815 1526 c-58 -25 -60 -32 -63 -242 l-4 -193 81 -25 c157 -50 361
-51 528 -3 l78 22 0 197 0 198 -28 27 -27 28 -268 2 c-206 2 -274 0 -297 -11z"/>
<path d="M1736 484 l-26 -27 0 -197 0 -197 73 -21 c192 -56 344 -56 535 0 l72
21 0 194 0 195 -29 29 -29 29 -285 0 -284 0 -27 -26z"/>
</g>
</svg>
